<svg aria-hidden="true" style="position: absolute; width: 0; height: 0; overflow: hidden;" version="1.1" xmlns="http://www.w3.org/2000/svg" xmlns:xlink="http://www.w3.org/1999/xlink">
<defs>
<symbol id="icon-menu" viewBox="0 0 48 32">
<path fill="#fff" style="fill: var(--color1, #fff)" d="M1.333 29.427v-3.809h45.333v3.809h-45.333zM1.333 17.021v-3.81h45.333v3.81h-45.333zM1.333 4.614v-3.809h45.333v3.809h-45.333z"></path>
</symbol>

<symbol id="icon-cta-button" viewBox="0 0 110 32">
<path fill="none" stroke="#fff" style="stroke: var(--color1, #fff)" stroke-linejoin="miter" stroke-linecap="butt" stroke-miterlimit="4" stroke-width="1.0863" d="M106.639 0.444h-104.076c-0.982 0-1.779 0.796-1.779 1.778v27.556c0 0.982 0.796 1.778 1.779 1.778h104.076c0.982 0 1.778-0.796 1.778-1.778v-27.556c0-0.982-0.796-1.778-1.778-1.778z"></path>
<path fill="#fff" style="fill: var(--color1, #fff)" d="M39.298 8.38c0 0.612-0.153 1.148-0.536 1.531-0.459 0.459-0.995 0.689-1.685 0.689s-1.225-0.23-1.685-0.689c-0.459-0.459-0.689-0.995-0.689-1.684s0.23-1.225 0.689-1.684c0.459-0.459 0.996-0.689 1.685-0.689 0.306 0 0.613 0.077 0.919 0.23s0.536 0.306 0.689 0.536l-0.383 0.383c-0.306-0.383-0.689-0.536-1.225-0.536-0.459 0-0.919 0.153-1.225 0.536-0.383 0.306-0.536 0.765-0.536 1.301s0.153 0.995 0.536 1.301c0.383 0.306 0.766 0.536 1.225 0.536 0.536 0 0.919-0.153 1.302-0.536 0.23-0.23 0.383-0.536 0.383-0.919h-1.685v-0.536h2.221c0 0 0 0.077 0 0.23z"></path>
<path fill="#fff" style="fill: var(--color1, #fff)" d="M42.821 6.467h-2.068v1.454h1.914v0.536h-1.914v1.454h2.068v0.536h-2.68v-4.593h2.68v0.612z"></path>
<path fill="#fff" style="fill: var(--color1, #fff)" d="M45.348 10.447h-0.613v-4.057h-1.302v-0.536h3.216v0.536h-1.301v4.057z"></path>
<path fill="#fff" style="fill: var(--color1, #fff)" d="M48.87 10.447v-4.593h0.612v4.593h-0.612z"></path>
<path fill="#fff" style="fill: var(--color1, #fff)" d="M52.087 10.447h-0.612v-4.057h-1.302v-0.536h3.14v0.536h-1.302v4.057h0.076z"></path>
<path fill="#fff" style="fill: var(--color1, #fff)" d="M59.361 9.911c-0.459 0.459-0.996 0.689-1.685 0.689s-1.225-0.23-1.685-0.689c-0.459-0.459-0.689-0.995-0.689-1.684s0.23-1.225 0.689-1.684c0.46-0.459 0.996-0.689 1.685-0.689s1.225 0.23 1.685 0.689c0.459 0.459 0.689 0.995 0.689 1.684 0 0.612-0.23 1.225-0.689 1.684zM56.451 9.528c0.306 0.306 0.766 0.536 1.225 0.536s0.919-0.153 1.225-0.536c0.306-0.306 0.536-0.765 0.536-1.301s-0.153-0.995-0.536-1.301c-0.306-0.306-0.766-0.536-1.225-0.536s-0.919 0.153-1.225 0.536c-0.306 0.306-0.536 0.765-0.536 1.301 0 0.459 0.153 0.919 0.536 1.301z"></path>
<path fill="#fff" style="fill: var(--color1, #fff)" d="M60.893 10.447v-4.593h0.689l2.22 3.598v-3.598h0.613v4.593h-0.613l-2.374-3.751v3.751h-0.536z"></path>
<path fill="#fff" style="fill: var(--color1, #fff)" d="M55.149 17.183c-1.838 0-3.293 1.378-3.293 3.291 0 1.837 1.455 3.291 3.293 3.291s3.293-1.378 3.293-3.291c0-1.914-1.455-3.291-3.293-3.291zM55.149 22.388c-0.996 0-1.838-0.842-1.838-1.99s0.842-1.99 1.838-1.99 1.838 0.765 1.838 1.99c0 1.225-0.842 1.99-1.838 1.99zM48.027 17.183c-1.838 0-3.293 1.378-3.293 3.291 0 1.837 1.455 3.291 3.293 3.291s3.293-1.378 3.293-3.291c0-1.914-1.455-3.291-3.293-3.291zM48.027 22.388c-0.995 0-1.838-0.842-1.838-1.99s0.843-1.99 1.838-1.99c0.996 0 1.838 0.765 1.838 1.99s-0.843 1.99-1.838 1.99zM39.528 18.178v1.378h3.293c-0.077 0.765-0.383 1.378-0.766 1.76-0.459 0.459-1.225 0.995-2.527 0.995-2.068 0-3.599-1.607-3.599-3.674s1.608-3.674 3.599-3.674c1.072 0 1.914 0.459 2.527 0.995l0.995-0.995c-0.842-0.765-1.914-1.378-3.446-1.378-2.757 0-5.131 2.296-5.131 5.052s2.374 5.052 5.131 5.052c1.532 0 2.604-0.459 3.523-1.454 0.919-0.919 1.225-2.22 1.225-3.215 0-0.306 0-0.612-0.077-0.842h-4.748zM74.293 19.249c-0.306-0.765-1.072-2.067-2.757-2.067s-3.063 1.301-3.063 3.291c0 1.837 1.379 3.291 3.216 3.291 1.455 0 2.374-0.918 2.68-1.454l-1.072-0.765c-0.383 0.536-0.842 0.918-1.608 0.918s-1.226-0.306-1.608-0.995l4.365-1.837-0.153-0.383zM69.852 20.321c0-1.225 0.995-1.914 1.684-1.914 0.536 0 1.072 0.306 1.226 0.689l-2.91 1.225zM66.252 23.459h1.455v-9.568h-1.455v9.568zM63.955 17.872c-0.383-0.383-0.996-0.765-1.762-0.765-1.608 0-3.14 1.454-3.14 3.291s1.455 3.215 3.14 3.215c0.766 0 1.378-0.383 1.685-0.765h0.077v0.459c0 1.225-0.689 1.914-1.762 1.914-0.842 0-1.455-0.612-1.608-1.148l-1.225 0.536c0.383 0.842 1.302 1.914 2.91 1.914 1.685 0 3.063-0.995 3.063-3.368v-5.817h-1.378v0.536zM62.271 22.388c-0.996 0-1.838-0.842-1.838-1.99s0.843-1.99 1.838-1.99 1.761 0.842 1.761 1.99c0 1.148-0.766 1.99-1.761 1.99zM80.955 13.891h-3.446v9.568h1.455v-3.597h1.991c1.608 0 3.139-1.148 3.139-2.985s-1.531-2.985-3.139-2.985zM81.031 18.56h-2.067v-3.291h2.067c1.072 0 1.685 0.919 1.685 1.607-0.076 0.765-0.689 1.684-1.685 1.684zM89.838 17.183c-1.072 0-2.145 0.459-2.527 1.454l1.302 0.536c0.306-0.536 0.766-0.689 1.302-0.689 0.766 0 1.455 0.459 1.531 1.225v0.077c-0.229-0.153-0.842-0.383-1.454-0.383-1.379 0-2.757 0.765-2.757 2.143 0 1.301 1.149 2.143 2.373 2.143 0.996 0 1.455-0.459 1.838-0.918h0.077v0.765h1.378v-3.674c-0.153-1.76-1.455-2.679-3.062-2.679zM89.685 22.388c-0.46 0-1.149-0.23-1.149-0.842 0-0.765 0.842-0.995 1.531-0.995 0.613 0 0.919 0.153 1.302 0.306-0.153 0.919-0.919 1.531-1.684 1.531zM97.725 17.336l-1.608 4.133h-0.077l-1.684-4.133h-1.532l2.527 5.817-1.456 3.215h1.456l3.905-9.032h-1.532zM84.861 23.459h1.455v-9.568h-1.455v9.568z"></path>
<path fill="#fff" style="fill: var(--color1, #fff)" d="M10.582 25.373c-0.306-0.153-0.459-0.536-0.459-0.918 0-0.077 0-0.23 0-0.306 0-5.664 0-11.328 0-16.916 0-0.306 0.077-0.536 0.153-0.842 0.077-0.153 0.23-0.306 0.383-0.459 3.293 3.291 6.509 6.583 9.725 9.874-3.293 3.062-6.509 6.277-9.802 9.568z"></path>
<path fill="#fff" style="fill: var(--color1, #fff)" d="M23.6 12.437c-0.919 0.919-1.914 1.837-2.833 2.832-3.063-3.138-6.203-6.277-9.266-9.415 0 0 0-0.077 0.077-0.077 3.982 2.22 7.964 4.439 12.022 6.659z"></path>
<path fill="#fff" style="fill: var(--color1, #fff)" d="M11.501 25.373c3.063-3.062 6.203-6.123 9.266-9.185 0.842 0.842 1.761 1.684 2.757 2.602-3.982 2.22-7.964 4.439-11.946 6.583h-0.077z"></path>
<path fill="#fff" style="fill: var(--color1, #fff)" d="M24.059 18.484c-0.996-0.919-1.914-1.837-2.91-2.756 0.995-0.995 1.991-1.99 2.986-2.985 0.306 0.153 0.613 0.306 0.919 0.536 0.766 0.459 1.608 0.842 2.374 1.301 0.23 0.077 0.383 0.23 0.536 0.459 0.306 0.383 0.306 0.765 0 1.148-0.153 0.153-0.306 0.306-0.536 0.383-1.072 0.689-2.221 1.301-3.369 1.914z"></path>
</symbol>

<symbol id="icon-cta-button-y" viewBox="0 0 108 32">
<path fill="#ffe000" style="fill: var(--color1, #ffe000)" d="M1.627 0h105.22c0.899 0 1.627 0.729 1.627 1.627v28.746c0 0.899-0.728 1.627-1.627 1.627h-105.22c-0.899 0-1.627-0.729-1.627-1.627v-28.746c0-0.899 0.729-1.627 1.627-1.627z"></path>
<path fill="none" stroke="#000" style="stroke: var(--color2, #000)" stroke-linejoin="miter" stroke-linecap="butt" stroke-miterlimit="4" stroke-width="1.0847" d="M106.377 0.444h-104.152c-0.983 0-1.78 0.796-1.78 1.778v27.556c0 0.982 0.797 1.778 1.78 1.778h104.152c0.983 0 1.78-0.796 1.78-1.778v-27.556c0-0.982-0.797-1.778-1.78-1.778z"></path>
<path fill="#000" style="fill: var(--color2, #000)" d="M38.986 8.38c0 0.612-0.153 1.148-0.536 1.531-0.46 0.459-0.996 0.689-1.686 0.689s-1.226-0.23-1.686-0.689c-0.46-0.459-0.69-0.995-0.69-1.684s0.23-1.225 0.69-1.684c0.46-0.459 0.996-0.689 1.686-0.689 0.307 0 0.613 0.077 0.92 0.23s0.536 0.306 0.69 0.536l-0.383 0.383c-0.307-0.383-0.69-0.536-1.226-0.536-0.46 0-0.92 0.153-1.226 0.536-0.383 0.306-0.536 0.765-0.536 1.301s0.153 0.995 0.536 1.301c0.383 0.306 0.766 0.536 1.226 0.536 0.536 0 0.92-0.153 1.303-0.536 0.23-0.23 0.383-0.536 0.383-0.919h-1.686v-0.536h2.222c0 0 0 0.077 0 0.23z"></path>
<path fill="#000" style="fill: var(--color2, #000)" d="M42.512 6.467h-2.069v1.454h1.916v0.536h-1.916v1.454h2.069v0.536h-2.682v-4.593h2.682v0.612z"></path>
<path fill="#000" style="fill: var(--color2, #000)" d="M45.041 10.447h-0.613v-4.057h-1.303v-0.536h3.218v0.536h-1.302v4.057z"></path>
<path fill="#000" style="fill: var(--color2, #000)" d="M48.566 10.447v-4.593h0.613v4.593h-0.613z"></path>
<path fill="#000" style="fill: var(--color2, #000)" d="M51.785 10.447h-0.613v-4.057h-1.303v-0.536h3.142v0.536h-1.303v4.057h0.077z"></path>
<path fill="#000" style="fill: var(--color2, #000)" d="M59.064 9.911c-0.459 0.459-0.996 0.689-1.686 0.689s-1.226-0.23-1.686-0.689c-0.459-0.459-0.689-0.995-0.689-1.684s0.23-1.225 0.689-1.684c0.46-0.459 0.996-0.689 1.686-0.689s1.226 0.23 1.686 0.689c0.46 0.459 0.69 0.995 0.69 1.684 0 0.612-0.23 1.225-0.69 1.684zM56.153 9.528c0.306 0.306 0.766 0.536 1.226 0.536s0.92-0.153 1.226-0.536c0.306-0.306 0.536-0.765 0.536-1.301s-0.153-0.995-0.536-1.301c-0.306-0.306-0.766-0.536-1.226-0.536s-0.919 0.153-1.226 0.536c-0.307 0.306-0.537 0.765-0.537 1.301 0 0.459 0.154 0.919 0.537 1.301z"></path>
<path fill="#000" style="fill: var(--color2, #000)" d="M60.598 10.447v-4.593h0.689l2.222 3.598v-3.598h0.613v4.593h-0.613l-2.376-3.751v3.751h-0.536z"></path>
<path fill="#000" style="fill: var(--color2, #000)" d="M54.849 17.183c-1.839 0-3.295 1.378-3.295 3.291 0 1.837 1.456 3.291 3.295 3.291s3.295-1.378 3.295-3.291c0-1.914-1.456-3.291-3.295-3.291zM54.849 22.388c-0.996 0-1.839-0.842-1.839-1.99s0.843-1.99 1.839-1.99c0.996 0 1.839 0.765 1.839 1.99s-0.843 1.99-1.839 1.99zM47.722 17.183c-1.839 0-3.295 1.378-3.295 3.291 0 1.837 1.456 3.291 3.295 3.291s3.295-1.378 3.295-3.291c0-1.914-1.456-3.291-3.295-3.291zM47.722 22.388c-0.996 0-1.839-0.842-1.839-1.99s0.843-1.99 1.839-1.99c0.996 0 1.84 0.765 1.84 1.99s-0.843 1.99-1.84 1.99zM39.216 18.178v1.378h3.295c-0.077 0.765-0.383 1.378-0.766 1.761-0.46 0.459-1.226 0.995-2.529 0.995-2.069 0-3.602-1.607-3.602-3.674s1.609-3.674 3.602-3.674c1.073 0 1.916 0.459 2.529 0.995l0.996-0.995c-0.843-0.765-1.916-1.378-3.449-1.378-2.759 0-5.134 2.296-5.134 5.052s2.376 5.052 5.134 5.052c1.533 0 2.605-0.459 3.525-1.454 0.92-0.919 1.226-2.22 1.226-3.215 0-0.306 0-0.612-0.077-0.842h-4.751zM74.008 19.249c-0.306-0.765-1.073-2.067-2.759-2.067s-3.065 1.301-3.065 3.291c0 1.837 1.379 3.291 3.218 3.291 1.456 0 2.376-0.919 2.682-1.454l-1.073-0.765c-0.383 0.536-0.843 0.918-1.609 0.918s-1.226-0.306-1.61-0.995l4.368-1.837-0.153-0.383zM69.563 20.321c0-1.225 0.996-1.914 1.686-1.914 0.536 0 1.073 0.306 1.226 0.689l-2.912 1.225zM65.961 23.459h1.456v-9.568h-1.456v9.568zM63.662 17.872c-0.383-0.383-0.996-0.765-1.763-0.765-1.609 0-3.142 1.454-3.142 3.291s1.456 3.215 3.142 3.215c0.767 0 1.379-0.383 1.686-0.765h0.077v0.459c0 1.225-0.689 1.914-1.763 1.914-0.843 0-1.456-0.612-1.609-1.148l-1.226 0.536c0.383 0.842 1.303 1.914 2.913 1.914 1.686 0 3.065-0.995 3.065-3.368v-5.817h-1.38v0.536zM61.976 22.388c-0.996 0-1.84-0.842-1.84-1.99s0.843-1.99 1.84-1.99 1.763 0.842 1.763 1.99c0 1.148-0.766 1.99-1.763 1.99zM80.675 13.891h-3.448v9.568h1.456v-3.598h1.993c1.609 0 3.142-1.148 3.142-2.985s-1.533-2.985-3.142-2.985zM80.751 18.56h-2.069v-3.291h2.069c1.073 0 1.686 0.919 1.686 1.607-0.076 0.765-0.69 1.684-1.686 1.684zM89.564 17.183c-1.073 0-2.146 0.459-2.529 1.454l1.303 0.536c0.306-0.536 0.766-0.689 1.303-0.689 0.766 0 1.456 0.459 1.533 1.225v0.077c-0.23-0.153-0.843-0.383-1.456-0.383-1.379 0-2.758 0.765-2.758 2.143 0 1.301 1.149 2.143 2.376 2.143 0.996 0 1.456-0.459 1.839-0.919h0.076v0.765h1.379v-3.674c-0.153-1.761-1.456-2.679-3.065-2.679zM89.411 22.388c-0.459 0-1.149-0.23-1.149-0.842 0-0.765 0.843-0.995 1.533-0.995 0.613 0 0.919 0.153 1.303 0.306-0.153 0.919-0.92 1.531-1.686 1.531zM97.457 17.336l-1.609 4.133h-0.076l-1.686-4.133h-1.533l2.529 5.817-1.456 3.215h1.456l3.908-9.032h-1.533zM84.583 23.459h1.456v-9.568h-1.456v9.568z"></path>
<path fill="#000" style="fill: var(--color2, #000)" d="M10.249 25.373c-0.307-0.153-0.46-0.536-0.46-0.919 0-0.077 0-0.23 0-0.306 0-5.664 0-11.328 0-16.916 0-0.306 0.077-0.536 0.153-0.842 0.077-0.153 0.23-0.306 0.383-0.459 3.295 3.291 6.514 6.583 9.732 9.874-3.295 3.062-6.514 6.277-9.809 9.568z"></path>
<path fill="#000" style="fill: var(--color2, #000)" d="M23.276 12.437c-0.92 0.918-1.916 1.837-2.835 2.832-3.065-3.138-6.207-6.277-9.273-9.415 0 0 0-0.077 0.077-0.077 3.985 2.22 7.97 4.44 12.031 6.659z"></path>
<path fill="#000" style="fill: var(--color2, #000)" d="M11.168 25.373c3.065-3.062 6.207-6.123 9.273-9.185 0.843 0.842 1.763 1.684 2.759 2.602-3.985 2.22-7.97 4.44-11.955 6.583h-0.077z"></path>
<path fill="#000" style="fill: var(--color2, #000)" d="M23.737 18.484c-0.996-0.918-1.916-1.837-2.912-2.755 0.996-0.995 1.992-1.99 2.989-2.985 0.306 0.153 0.613 0.306 0.92 0.536 0.766 0.459 1.609 0.842 2.376 1.301 0.23 0.077 0.383 0.23 0.536 0.459 0.307 0.383 0.307 0.765 0 1.148-0.153 0.153-0.306 0.306-0.536 0.383-1.073 0.689-2.222 1.301-3.372 1.914z"></path>
</symbol>

<symbol id="icon-close" viewBox="0 0 32 32">
<path fill="#fff" style="fill: var(--color1, #fff)" d="M3.2 32l-3.2-3.2 12.8-12.8-12.8-12.8 3.2-3.2 12.8 12.8 12.8-12.8 3.2 3.2-12.8 12.8 12.8 12.8-3.2 3.2-12.8-12.8-12.8 12.8z"></path>
</symbol>

</defs>
</svg>
